<svg xmlns="http://www.w3.org/2000/svg" id="Layer_1" data-name="Layer 1" viewBox="0 0 478.81 233.29">
  <path fill="#443F3E" d="M280.11 94.09c-7.66-.13-15.35.43-23-.71-2-.29-3.12.75-4.35 1.87-20.05 18.37-39.35 37.45-55.85 59.18-4.46 5.88-8.67 11.84-9 19.62-.06 1.27-.28 2.94-2 3-2 .05-1.66-1.71-1.82-3-.51-4-1.08-7.92-1.43-11.9-.47-5.21 2-9.3 5.37-13 10.37-11.1 21.86-21 33-31.31q50.85-47 103.39-92.11c8.62-7.38 18.24-12.45 28.41-16.9.64-.28 1.26-.64 1.78 0a3 3 0 0 1 .06 3.72c-5.43 8.71-7 18.65-8.9 28.43-5.22 27.31-10.33 54.65-14.2 82.19a68.26 68.26 0 0 0-.74 9.46c0 10.73 4.06 13.87 14.36 11.34 1-.24 1.92-.55 2.9-.76a1.67 1.67 0 0 1 2.09.88c.5 1.21-.23 1.95-1.27 2.24-9.45 2.58-18.66 6.19-28.39 7.61-4.13.6-7.26-3.68-6.55-8.57 1.55-10.71 3.38-21.38 5-32.08 1.67-11.31-3-17.16-14.33-18.51-8.2-.91-16.37-.52-24.53-.69zm54.45-69.88c-1.95 1.47-2.87 2.13-3.75 2.83-17 13.69-33.65 27.69-49.88 42.23-5.44 4.88-10.53 10.15-15.85 15.18-2.43 2.29-1.78 3.64 1.18 4.16a93 93 0 0 0 10.37 1.3c14.6.83 29.28-.85 43.82 1.55 2.34.38 2.31-1.32 2.55-2.69 3.8-21.08 7.56-42.16 11.56-64.56zM75 32.73c-4.46-4.29-5.3-9.73-2.64-14.82 2.88-5.46 7.64-8.6 13.19-10.85 9.4-3.83 19.38-4.71 29.3-5.67A347.66 347.66 0 0 1 151.79.06c1.2 0 2.67-.46 3.38 1.12-.31.37-.55.83-.69.8-8.31-1.67-12 3.82-15.35 9.84q-11.61 21-23.16 41.93a12.1 12.1 0 0 0-.46 2.19c3-1.88 5.43-3.44 7.9-4.88a37.43 37.43 0 0 1 10.08-4.23c7.85-1.91 10-.86 13.18 7.35 1.76-7.92 6.87-8.17 12.74-6.81.34 1.86-1 3.1-1.77 4.5-6.38 11.3-12.81 22.57-19.19 33.87a32.92 32.92 0 0 0-3.92 9.14c-.29 1.37-.37 2.76.73 3.73 1.32 1.16 2.8.56 4.17-.1 2.31-1.12 3.93-3 5.62-4.87 1.32-1.42 2.3-3.27 4.3-3.92 1.29 1.49 0 2.33-.63 3.1A48.85 48.85 0 0 1 133 106.46c-3 1.58-6.23 3-9.4.7-3-2.12-2-5.32-1.54-8.27.12-.8.11-1.62.18-3-3.25 2.77-6 5.3-9 7.57a27.13 27.13 0 0 1-5.6 3.24c-9.6 4.16-15.86 0-15.74-10.36a11 11 0 0 0-.23-3.23c-6.92 9.47-15.44 17.22-24.55 24.33C50 130.78 31 137 9.26 133.13c-2-.35-3.85-1-5.77-1.56-2.66-.73-3.87-2.38-3.39-5.18.58-3.35-.63-6.94 1.08-10.14a1.56 1.56 0 0 1 1.51 1.31c2.7 8.8 9.13 12.7 17.85 13.48 14.14 1.25 26.64-2.67 37.35-12.1a126.88 126.88 0 0 0 20.28-23.31c19.36-28 35.72-57.7 50.62-88.24 2.26-4.64 1.93-5-3.25-4.74-12.36.68-24.51 2.46-36 7.28-11 4.6-14.9 10.63-14.54 22.8zm32 70.35c4.06-.61 7.53-3.18 10.6-6.26C128.26 86.1 136 73.4 142 59.57a12.11 12.11 0 0 0 1-3.84c.42-4.93-2.77-7.43-7.53-6-4.13 1.24-7.29 4-10.16 7a111.33 111.33 0 0 0-22.5 35 19.6 19.6 0 0 0-1.47 6.25c-.24 3.39 1.66 5.16 5.66 5.1zM229.72 52.74c4.42-10.23 8.61-19.63 12.52-29.15 2-5 1.3-6-3.93-6.88-1.07-.18-2.64.13-2.58-1.5.06-1.35 1.46-1.82 2.62-1.87 7.16-.26 13.65-2.64 19.84-6.07.68-.38 1.46-1 2.26-.29s.26 1.52-.05 2.26c-.59 1.38-1.18 2.75-1.81 4.11q-16.92 36.15-33.83 72.31a83.89 83.89 0 0 0-3.65 9.79c-.46 1.41-.41 3.07 1.22 4 1.37.74 2.7 0 3.69-.76 1.91-1.58 3.61-3.42 5.43-5.12 1.42-1.31 2.11-3.46 4.39-3.89.91 2.21-.84 3.44-1.84 4.8-3.58 4.87-7.75 9.19-13.11 12.11-6.69 3.66-11 1.2-11.53-6.35-.08-1.26.59-2.62-.48-3.86-2-.15-2.59 1.77-3.67 2.83-3.85 3.78-8 7.07-13.29 8.53-8 2.2-14-1.93-14.89-10.15a32.81 32.81 0 0 1 1.79-14.75 65.44 65.44 0 0 1 27.71-34.26 30.39 30.39 0 0 1 9.65-3.93c7.48-1.65 10.71.06 13.54 8.09zm-42.58 41.95c0 7.54 3 9.78 8.13 8.29a18.53 18.53 0 0 0 8.23-5.44c10.83-11.48 17.65-25.23 22.24-40.16.93-3 1.23-6.49-1.72-8.76-3.1-2.38-6.6-1.47-9.29.6-15.66 12.09-22.8 29.21-27.59 45.47zm22.06-.27a10.81 10.81 0 0 0-.48 1.34 2.45 2.45 0 0 0 .73.3 4.18 4.18 0 0 0 .52-1.21c.03-.07-.45-.25-.77-.43z" class="cls-1"/>
  <path fill="#443F3E" d="M372.78 215.73c11.15-22.89 26.7-39.65 50-48.23 12.1-4.46 24.55-5.93 37.23-2.46 15.51 4.24 19.58 19.1 8.48 30.81-6.37 6.72-19.7 11-31.16 9.88 3.22-1.88 6.64-1.55 9.7-2.56 6.15-2 11.66-4.86 15.37-10.4 5.92-8.86 3.43-16.67-6.68-20s-20.47-2.35-30.44.8c-20.53 6.51-36.15 19.43-47.63 37.43-1.65 2.56-1.6 2.56-4.87 4.73z" class="cls-2"/>
  <path fill="#443F3E" d="M373 218.62c-4.43 1.76-6.51 0-8.31-2-6.3-6.85-8-14.82-4.91-23.6a43 43 0 0 1 12.86-18.14c6.19-5.36 13-9.93 19.66-14.57 5.68-3.94 10.68-8.51 13.76-14.85 3.26-6.71 2.43-12.1-2.42-15.71-4.44-3.32-11.93-2.74-16.61 1.48-2.71 2.44-5.12 5.24-7.83 7.69-1.28 1.16-2.69 2.59-5.93 1.51 4.73-2.7 4.55-6.31 4.2-10.74s4-7.13 8.1-8.41c7.35-2.32 14.3-1.09 20 4.34 5.25 5 5.79 11.34 3.83 18-2.29 7.79-7.09 13.89-13.12 19.07-8.23 7.08-16.15 14.46-22.86 23-5.76 7.37-8.84 15.63-7.16 25.14.58 3.49 1.38 6.9 6.74 7.79zM478.47 208.43c-7.26 6.53-16.25 8-25.47 8.53-13.6.76-26.87-1.8-40.13-4.38a60.45 60.45 0 0 0-25.79.14c-2.63.63-6.46.28-7.06 3.59-.56 3.09 4.38.26 4.56 3.2-2.34 1.14-5.4.68-6.6-1.51-1.38-2.5 1.17-4.53 3.28-5.87 5.83-3.68 12.52-4.28 19.14-5 10.08-1.09 19.91 1.13 29.81 2.37 11.74 1.47 23.44 3.2 35.34 1.77A62.4 62.4 0 0 0 478 208z" class="cls-2"/>
  <path fill="#443F3E" d="M442.73 230.59c-11.92 3.59-24.17 2.86-36.4 2a45.28 45.28 0 0 1-13.17-2.59c-1.79-.69-4.23-1.17-4.08-3.71s2.72-2.58 4.57-3c3.33-.69 6.89-.45 10-2.57-2.73-3.63-7.39.23-10.41-3.33 5.85-.69 11.31-1.25 16.81-.36 2.12.34 5 .75 4.8 3.35s-3.05 2.53-5.18 2.82c-2.47.33-5 .58-7.41 1-1.12.22-2.45.84-2.5 2.11s1.3 1.92 2.36 2.25a32.39 32.39 0 0 0 6.27 1.52 126 126 0 0 0 26.41.23c2.55-.19 5.2-.88 7.93.28zM285 12.14c-2.47 10.81-7 21-14.71 29.57-.66.74-1.68 2.08-2.86.71-.84-1 .18-1.82.8-2.55 2.55-3 5.35-5.91 7.63-9.15 4-5.7 5.51-12 3.23-18.85-.5-1.51-1.5-3.19.37-4.48.89-.62 1.82-1.63 3.11-.82 1.87 1.2 2.25 3.14 2.43 5.57zM364.33 143.68c-.27 2.72-1.65 4.43-4.41 4.51a4.55 4.55 0 1 1-.39-9.1c2.98-.09 4.52 1.7 4.8 4.59zM478 208c.11-.42.25-.87.79-.54.07 0-.21.67-.33 1z" class="cls-2"/>
</svg>
