<?xml version="1.0" encoding="iso-8859-1"?>
<!-- Generator: Adobe Illustrator 19.0.0, SVG Export Plug-In . SVG Version: 6.00 Build 0)  -->
<svg version="1.1" id="Layer_1" xmlns="http://www.w3.org/2000/svg" xmlns:xlink="http://www.w3.org/1999/xlink" x="0px" y="0px"
	 viewBox="0 0 512 512" style="enable-background:new 0 0 512 512;" xml:space="preserve">
<g>
	<g>
		<path d="M454.334,356.402c7.355-7.878,23.58-23.625,44.26-33.928L512,315.796l-13.242-6.997
			c-7.566-3.999-16.201-7.785-25.74-11.32c19.934-18.676,31.129-35.037,32.007-36.341l5.496-8.152l-9.239-3.365
			c-2.519-0.917-54.972-19.606-114.015-9.614c27.772-53.148,26.192-108.824,26.102-111.388l-0.345-9.827l-9.453,2.709
			c-2.959,0.848-72.939,21.429-115.554,80.068c-17.174,23.639-27.087,49.596-32.8,72.363c-5.661-22.556-15.525-48.705-32.715-72.365
			c-1.28-1.762-2.587-3.486-3.913-5.179c3.298-46.569,25.693-86.109,36.68-102.949c9.148,13.984,26.186,43.634,33.541,80.073
			l15.068-3.043c-10.962-54.314-41.278-93.547-42.563-95.19l-6.055-7.742l-6.055,7.742c-1.58,2.022-35.6,46.136-44.365,105.456
			c-41.902-42.787-95.318-58.499-97.895-59.237l-9.453-2.709l-0.345,9.827c-0.074,2.084-1.531,51.639,21.537,102.026l13.977-6.399
			c-15.434-33.711-19.102-67.78-19.937-84.494c20.306,7.732,66.968,29.064,97.343,70.855c22.345,30.755,31.353,66.408,34.976,90.903
			c0.583,3.932,1.033,7.626,1.382,11.032c-18.01-20.28-51.337-51.334-96.648-66.056c-68.94-22.401-137.649,2.088-140.542,3.14
			L0,252.986l5.496,8.152c1.72,2.551,42.919,62.75,111.854,85.148c21.492,6.983,42.962,9.41,62.422,9.41
			c36.945,0,66.628-8.74,75.488-11.649c8.857,2.909,38.538,11.649,75.489,11.649c19.457,0,40.934-2.428,62.422-9.41
			c26.522-8.618,48.934-22.831,66.576-37.203c6.72,2.261,13.001,4.638,18.791,7.119c-24.089,15.324-39.693,34.428-40.453,35.368
			l-3.908,4.834l3.909,4.833c0.76,0.94,16.367,20.038,40.454,35.365c-47.168,20.206-123.867,32.491-205.447,32.491
			c-68.091,0-132.003-8.236-179.96-23.191c-43.889-13.686-70.093-32.19-70.093-49.498c0-12.519,13.383-23.279,24.61-30.1
			l-7.982-13.136c-21.233,12.898-32,27.446-32,43.235c0,25.481,27.97,47.672,80.888,64.172
			c49.4,15.405,114.936,23.888,184.537,23.888c93.346,0,177.706-15.125,225.665-40.457l13.242-6.994l-13.402-6.68
			C477.913,380.021,461.687,364.276,454.334,356.402z M122.101,331.667c-49.006-15.923-83.791-53.75-97.452-70.681
			c20.98-5.682,71.262-15.847,120.382,0.113c48.999,15.921,83.778,53.737,97.443,70.671
			C221.46,337.439,171.096,347.587,122.101,331.667z M300.455,210.603c30.298-41.691,77.026-63.083,97.345-70.843
			c-0.995,20.067-6.098,65.13-30.855,104.83c-2.067,0.59-4.135,1.217-6.203,1.89c-45.265,14.708-78.57,45.713-96.593,65.993
			C266.793,287.167,275.036,245.592,300.455,210.603z M388.423,331.667c-49.012,15.924-99.386,5.767-120.387,0.099
			c13.631-16.926,48.334-54.705,97.457-70.667c49.012-15.924,99.386-5.766,120.387-0.098
			C472.248,277.927,437.545,315.706,388.423,331.667z"/>
	</g>
</g>
<g>
</g>
<g>
</g>
<g>
</g>
<g>
</g>
<g>
</g>
<g>
</g>
<g>
</g>
<g>
</g>
<g>
</g>
<g>
</g>
<g>
</g>
<g>
</g>
<g>
</g>
<g>
</g>
<g>
</g>
</svg>
