<svg xmlns="http://www.w3.org/2000/svg" viewBox="0 0 286.407 286.407"><path d="M253.594 180.605v-35.058h9.375v-9.375h-75.001v9.375h9.375v35.058c-7.538 3.933-14.044 9.342-19.233 15.764-.99-13.215-3.567-26.242-7.777-38.865-.74-2.217-1.116-4.528-1.116-6.867 0-2.78.525-5.494 1.556-8.077l.52-1.297c4.842-12.112 7.298-24.867 7.298-37.903v-4.688h-28.124v-24.3c3.342-1.19 6.075-3.595 7.71-6.703 1.36.42 2.762.693 4.173.693 3.6-.005 7.204-1.373 9.946-4.11 3.82-3.82 4.917-9.292 3.417-14.12 4.472-2.358 7.566-6.998 7.566-12.398 0-5.4-3.095-10.045-7.57-12.398 1.5-4.833.402-10.303-3.418-14.123-3.816-3.816-9.286-4.908-14.114-3.412C155.82 3.325 151.18.236 145.78.236c-5.4 0-10.04 3.092-12.397 7.564-4.828-1.495-10.298-.398-14.12 3.412-3.82 3.82-4.916 9.29-3.416 14.12-4.472 2.36-7.566 7.002-7.566 12.402 0 5.4 3.095 10.04 7.57 12.398-1.5 4.833-.402 10.303 3.418 14.123 2.737 2.737 6.342 4.106 9.942 4.106 1.416 0 2.813-.27 4.177-.693 1.636 3.108 4.37 5.513 7.71 6.703v24.3h-28.124v4.688c0 13.036 2.456 25.79 7.298 37.903l.52 1.304c1.032 2.578 1.557 5.292 1.557 8.072 0 2.34-.375 4.65-1.116 6.867-3.383 10.148-5.61 20.573-6.913 31.134-5.24-6.197-16.18-10.28-29.475-10.28-18.708 0-32.813 8.063-32.813 18.75 0 4.688 2.718 8.873 7.344 12.09-12.263 2.89-21.408 8.14-21.408 16.035 0 6.07 5.428 10.56 13.49 13.636-13.382 3.853-22.865 10.28-22.865 19.177 0 4.894 2.88 9.038 7.684 12.422-8.616-.558-17.217-1.21-25.78-2.067l-9.56-.956-.934 9.33 9.563.955c.094.008.188.013.28.022v8.42h9.376v-7.6c21.79 1.895 43.808 2.912 65.624 2.912 21.816 0 43.833-1.017 65.625-2.91v7.597h9.374v-8.418c.094-.01.188-.014.28-.023l9.564-.957-.933-9.328-9.563.956c-8.564.86-17.166 1.51-25.78 2.068 4.804-3.384 7.682-7.528 7.682-12.422 0-8.897-9.483-15.323-22.866-19.177 8.062-3.076 13.49-7.567 13.49-13.637 0-4.97-3.636-8.883-9.374-11.83v-4.998c0-16.322 2.62-32.456 7.78-47.94 1.056-3.172 1.595-6.482 1.595-9.83 0-3.98-.75-7.865-2.228-11.554l-.52-1.297c-3.816-9.544-6-19.528-6.516-29.737h46.64c-.51 10.21-2.694 20.194-6.515 29.737l-.515 1.294c-1.472 3.694-2.222 7.58-2.222 11.56 0 3.346.54 6.655 1.594 9.833 5.16 15.478 7.78 31.613 7.78 47.934v2.766h.07c-3.07 7.313-4.757 15.253-4.757 23.438 0 20.452 10.195 39.436 27.277 50.78l1.177.783h64.97l1.176-.782c17.08-11.344 27.277-30.328 27.277-50.78 0-22.68-12.784-43.555-32.813-54.003zM165.67 57.62c-1.598 1.593-4.012 1.71-5.827.533v-6.356h6.36c1.178 1.82 1.056 4.233-.533 5.822zm-5.827-40.31c1.82-1.17 4.234-1.054 5.827.535 1.59 1.594 1.71 4.008.534 5.827h-6.36v-6.36zm-.862 15.737h10.238c2.583 0 4.688 2.1 4.688 4.688s-2.105 4.688-4.688 4.688H158.98c.526-1.472.863-3.037.863-4.688s-.337-3.216-.862-4.688zM125.893 17.85c1.594-1.598 4.008-1.716 5.827-.534v6.356h-6.362c-1.177-1.82-1.055-4.233.534-5.822zm5.827 40.302c-1.82 1.178-4.234 1.06-5.828-.53-1.59-1.593-1.71-4.007-.534-5.826h6.36v6.356zm.862-15.73H122.343c-2.583 0-4.688-2.1-4.688-4.688s2.105-4.688 4.688-4.688h10.237c-.525 1.472-.863 3.037-.863 4.688s.337 3.216.862 4.688zm-19.557 164.526c0 .487-.056.97-.056 1.458v1.462c-.864-.234-1.76-.454-2.66-.67 1.01-.703 1.9-1.462 2.715-2.25zm-28.18-19.214c14.306 0 23.437 5.555 23.437 9.375s-9.13 9.374-23.438 9.374-23.438-5.554-23.438-9.375c0-3.82 9.13-9.376 23.438-9.376zm46.874 70.332c0 5.452-17.748 14.044-44.687 14.044H82.65c-26.934 0-44.68-8.592-44.68-14.044 0-5.597 18.693-14.063 46.874-14.063 28.18 0 46.875 8.466 46.875 14.063zM84.843 234.61c-24.61 0-37.5-6.967-37.5-9.376s12.89-9.375 37.5-9.375 37.5 6.965 37.5 9.374-12.89 9.375-37.5 9.375zm56.25-210.938v-9.375c0-2.588 2.105-4.688 4.688-4.688s4.688 2.1 4.688 4.687v10.237c-1.472-.525-3.037-.862-4.688-.862s-3.216.337-4.688.862v-.862zm4.687 9.374c2.584 0 4.69 2.1 4.69 4.688s-2.106 4.688-4.69 4.688-4.687-2.1-4.687-4.688 2.105-4.688 4.688-4.688zm0 32.814c-2.582 0-4.687-2.1-4.687-4.688V50.935c1.472.525 3.037.862 4.688.862s3.217-.337 4.69-.862v10.237c0 2.588-2.106 4.688-4.69 4.688zm109.31 210.937h-59.242c-13.767-9.675-21.942-25.34-21.942-42.188 0-3.184.328-6.31.905-9.376h78.784v-9.375h-76.102c4.805-12.198 14.17-22.412 26.494-28.08l2.733-1.255v-40.978h37.5v40.978l2.732 1.256c12.328 5.668 21.69 15.882 26.494 28.08H262.97v9.374h13.157c.577 3.066.905 6.192.905 9.375 0 16.846-8.176 32.512-21.943 42.187z"/></svg>